<mxfile host="app.diagrams.net" modified="2023-03-27T18:32:41.845Z" agent="Mozilla/5.0 (Windows NT 10.0; Win64; x64) AppleWebKit/537.36 (KHTML, like Gecko) Chrome/111.0.0.0 Safari/537.36" etag="-zJOnL1L3DILG7L8-nUR" version="21.1.1" type="device">
  <diagram name="Page-1" id="42789a77-a242-8287-6e28-9cd8cfd52e62">
    <mxGraphModel dx="1434" dy="1725" grid="0" gridSize="10" guides="1" tooltips="1" connect="1" arrows="1" fold="1" page="1" pageScale="1" pageWidth="1169" pageHeight="827" background="none" math="0" shadow="0">
      <root>
        <mxCell id="0" />
        <mxCell id="1" parent="0" />
        <mxCell id="RCgHX4GRvF95K-_nUbPo-18" value="" style="edgeStyle=orthogonalEdgeStyle;rounded=0;html=1;labelBackgroundColor=default;startArrow=classicThin;startFill=1;startSize=5;endArrow=none;endFill=0;endSize=5;jettySize=auto;orthogonalLoop=1;strokeColor=#B3B3B3;strokeWidth=1;fontFamily=Verdana;fontSize=12;curved=1;entryX=0.5;entryY=1;entryDx=0;entryDy=0;exitX=0;exitY=0.5;exitDx=0;exitDy=0;" edge="1" parent="1" source="SZPIR-vylu-NpdnEEfQ1-16" target="1ea317790d2ca983-3">
          <mxGeometry x="-0.775" relative="1" as="geometry">
            <mxPoint x="685" y="256" as="sourcePoint" />
            <mxPoint as="offset" />
            <mxPoint x="676" y="156" as="targetPoint" />
          </mxGeometry>
        </mxCell>
        <mxCell id="FaIekiVfJinsLdWRMJVf-2" value="" style="edgeStyle=orthogonalEdgeStyle;rounded=0;html=1;labelBackgroundColor=none;startArrow=classic;startFill=1;startSize=5;endArrow=none;endFill=0;endSize=5;jettySize=auto;orthogonalLoop=1;strokeColor=#B3B3B3;strokeWidth=1;fontFamily=Verdana;fontSize=12;elbow=vertical;curved=1;entryX=1;entryY=0.5;entryDx=0;entryDy=0;" parent="1" source="1ea317790d2ca983-2" target="FaIekiVfJinsLdWRMJVf-1" edge="1">
          <mxGeometry x="0.4862" y="3" relative="1" as="geometry">
            <mxPoint as="offset" />
            <mxPoint x="319" y="223" as="sourcePoint" />
            <mxPoint x="186" y="259" as="targetPoint" />
          </mxGeometry>
        </mxCell>
        <mxCell id="RCgHX4GRvF95K-_nUbPo-4" value="&lt;span&gt;Ideal humidity range&lt;/span&gt;" style="ellipse;whiteSpace=wrap;html=1;rounded=0;shadow=1;comic=0;labelBackgroundColor=none;strokeWidth=1;fontFamily=Verdana;fontSize=12;align=center;" vertex="1" parent="1">
          <mxGeometry x="817.25" y="11" width="75" height="50" as="geometry" />
        </mxCell>
        <mxCell id="1ea317790d2ca983-12" value="has" style="edgeStyle=orthogonalEdgeStyle;rounded=0;html=1;labelBackgroundColor=default;startArrow=none;startFill=0;startSize=5;endArrow=classicThin;endFill=1;endSize=5;jettySize=auto;orthogonalLoop=1;strokeColor=#B3B3B3;strokeWidth=1;fontFamily=Verdana;fontSize=12;elbow=vertical;curved=1;exitX=0.5;exitY=0;exitDx=0;exitDy=0;entryX=1;entryY=0.5;entryDx=0;entryDy=0;" parent="1" source="cV3PZhEm3AA5OYnnYDBn-3" target="1ea317790d2ca983-2" edge="1">
          <mxGeometry x="-0.2177" y="49" relative="1" as="geometry">
            <mxPoint x="1" as="offset" />
            <mxPoint x="502.5" y="41" as="sourcePoint" />
          </mxGeometry>
        </mxCell>
        <mxCell id="1ea317790d2ca983-13" value="part_of" style="edgeStyle=orthogonalEdgeStyle;rounded=0;html=1;labelBackgroundColor=default;startArrow=none;startFill=0;startSize=5;endArrow=classicThin;endFill=1;endSize=5;jettySize=auto;orthogonalLoop=1;strokeColor=#B3B3B3;strokeWidth=1;fontFamily=Verdana;fontSize=12;elbow=vertical;curved=1;entryX=0;entryY=0.5;entryDx=0;entryDy=0;" parent="1" source="1ea317790d2ca983-9" target="cV3PZhEm3AA5OYnnYDBn-3" edge="1">
          <mxGeometry x="-0.6851" relative="1" as="geometry">
            <mxPoint as="offset" />
            <mxPoint x="547.5" y="61" as="sourcePoint" />
            <mxPoint x="456" y="146" as="targetPoint" />
          </mxGeometry>
        </mxCell>
        <mxCell id="1ea317790d2ca983-14" value="has" style="edgeStyle=orthogonalEdgeStyle;rounded=0;html=1;labelBackgroundColor=default;startArrow=none;startFill=0;startSize=5;endArrow=classicThin;endFill=1;endSize=5;jettySize=auto;orthogonalLoop=1;strokeColor=#B3B3B3;strokeWidth=1;fontFamily=Verdana;fontSize=12;curved=1;entryX=0.5;entryY=0;entryDx=0;entryDy=0;exitX=0.5;exitY=0;exitDx=0;exitDy=0;" parent="1" source="cV3PZhEm3AA5OYnnYDBn-3" target="1ea317790d2ca983-3" edge="1">
          <mxGeometry x="-0.0771" y="-19" relative="1" as="geometry">
            <mxPoint as="offset" />
            <mxPoint x="592.5" y="41" as="sourcePoint" />
          </mxGeometry>
        </mxCell>
        <mxCell id="1ea317790d2ca983-21" value="instance_of" style="edgeStyle=orthogonalEdgeStyle;rounded=0;html=1;labelBackgroundColor=default;startArrow=classic;startFill=1;startSize=5;endArrow=none;endFill=0;endSize=5;jettySize=auto;orthogonalLoop=1;strokeColor=#B3B3B3;strokeWidth=1;fontFamily=Verdana;fontSize=12;elbow=vertical;curved=1;" parent="1" source="1ea317790d2ca983-2" target="1ea317790d2ca983-7" edge="1">
          <mxGeometry x="-0.4184" y="4" relative="1" as="geometry">
            <mxPoint as="offset" />
          </mxGeometry>
        </mxCell>
        <mxCell id="1ea317790d2ca983-22" value="is_a" style="edgeStyle=orthogonalEdgeStyle;rounded=0;html=1;labelBackgroundColor=default;startArrow=classic;startFill=1;startSize=5;endArrow=none;endFill=0;endSize=5;jettySize=auto;orthogonalLoop=1;strokeColor=#B3B3B3;strokeWidth=1;fontFamily=Verdana;fontSize=12;elbow=vertical;curved=1;exitX=0;exitY=0.5;exitDx=0;exitDy=0;" parent="1" source="FaIekiVfJinsLdWRMJVf-1" target="1ea317790d2ca983-6" edge="1">
          <mxGeometry x="0.548" relative="1" as="geometry">
            <mxPoint as="offset" />
          </mxGeometry>
        </mxCell>
        <mxCell id="1ea317790d2ca983-2" value="&lt;span&gt;Health Status&lt;/span&gt;" style="ellipse;whiteSpace=wrap;html=1;rounded=0;shadow=1;comic=0;labelBackgroundColor=default;strokeWidth=2;fontFamily=Verdana;fontSize=12;align=center;" parent="1" vertex="1">
          <mxGeometry x="360" y="81" width="101" height="50" as="geometry" />
        </mxCell>
        <mxCell id="1ea317790d2ca983-3" value="&lt;span&gt;Environment property&lt;/span&gt;" style="ellipse;whiteSpace=wrap;html=1;rounded=0;shadow=1;comic=0;labelBackgroundColor=none;strokeWidth=1;fontFamily=Verdana;fontSize=12;align=center;" parent="1" vertex="1">
          <mxGeometry x="743.75" y="444" width="90" height="50" as="geometry" />
        </mxCell>
        <mxCell id="1ea317790d2ca983-17" value="" style="edgeStyle=orthogonalEdgeStyle;rounded=0;html=1;labelBackgroundColor=default;startArrow=none;startFill=0;startSize=5;endArrow=classicThin;endFill=1;endSize=5;jettySize=auto;orthogonalLoop=1;strokeColor=#B3B3B3;strokeWidth=1;fontFamily=Verdana;fontSize=12;entryX=0.5;entryY=1;entryDx=0;entryDy=0;elbow=vertical;curved=1;exitX=0.5;exitY=0;exitDx=0;exitDy=0;" parent="1" source="SZPIR-vylu-NpdnEEfQ1-40" target="1ea317790d2ca983-6" edge="1">
          <mxGeometry x="-0.8331" y="11" relative="1" as="geometry">
            <mxPoint as="offset" />
          </mxGeometry>
        </mxCell>
        <mxCell id="1ea317790d2ca983-23" value="is_a" style="edgeStyle=orthogonalEdgeStyle;rounded=0;html=1;labelBackgroundColor=default;startArrow=openThin;startFill=0;startSize=5;endArrow=none;endFill=0;endSize=5;jettySize=auto;orthogonalLoop=1;strokeColor=#B3B3B3;strokeWidth=1;fontFamily=Verdana;fontSize=12;exitX=0.5;exitY=1;exitDx=0;exitDy=0;elbow=vertical;curved=1;" parent="1" source="SZPIR-vylu-NpdnEEfQ1-39" target="1ea317790d2ca983-8" edge="1">
          <mxGeometry x="0.3143" relative="1" as="geometry">
            <mxPoint as="offset" />
          </mxGeometry>
        </mxCell>
        <mxCell id="1ea317790d2ca983-6" value="Health Problem" style="ellipse;whiteSpace=wrap;html=1;rounded=0;shadow=1;comic=0;labelBackgroundColor=default;strokeWidth=2;fontFamily=Verdana;fontSize=12;align=center;" parent="1" vertex="1">
          <mxGeometry x="30" y="364" width="106" height="50" as="geometry" />
        </mxCell>
        <mxCell id="1ea317790d2ca983-7" value="&lt;span&gt;Healthy&lt;/span&gt;" style="ellipse;whiteSpace=wrap;html=1;rounded=0;shadow=1;comic=0;labelBackgroundColor=default;strokeWidth=1;fontFamily=Verdana;fontSize=12;align=center;" parent="1" vertex="1">
          <mxGeometry x="120.5" y="115" width="75" height="50" as="geometry" />
        </mxCell>
        <mxCell id="1ea317790d2ca983-8" value="Disease" style="ellipse;whiteSpace=wrap;html=1;rounded=0;shadow=1;comic=0;labelBackgroundColor=default;strokeWidth=1;fontFamily=Verdana;fontSize=12;align=center;" parent="1" vertex="1">
          <mxGeometry x="176.25" y="633" width="75" height="50" as="geometry" />
        </mxCell>
        <mxCell id="1ea317790d2ca983-19" value="localized_on" style="edgeStyle=orthogonalEdgeStyle;rounded=0;html=1;labelBackgroundColor=default;startArrow=classicThin;startFill=1;startSize=5;endArrow=none;endFill=0;endSize=5;jettySize=auto;orthogonalLoop=1;strokeColor=#B3B3B3;strokeWidth=1;fontFamily=Verdana;fontSize=12;elbow=vertical;curved=1;" parent="1" source="1ea317790d2ca983-9" target="1ea317790d2ca983-10" edge="1">
          <mxGeometry x="-0.4934" y="29" relative="1" as="geometry">
            <mxPoint as="offset" />
          </mxGeometry>
        </mxCell>
        <mxCell id="1ea317790d2ca983-9" value="Location" style="ellipse;whiteSpace=wrap;html=1;rounded=0;shadow=1;comic=0;labelBackgroundColor=default;strokeWidth=1;fontFamily=Verdana;fontSize=12;align=center;" parent="1" vertex="1">
          <mxGeometry x="407.5" y="165" width="75" height="50" as="geometry" />
        </mxCell>
        <mxCell id="1ea317790d2ca983-20" value="manifests" style="edgeStyle=orthogonalEdgeStyle;rounded=0;html=1;labelBackgroundColor=default;startArrow=classicThin;startFill=1;startSize=5;endArrow=none;endFill=0;endSize=5;jettySize=auto;orthogonalLoop=1;strokeColor=#B3B3B3;strokeWidth=1;fontFamily=Verdana;fontSize=12;elbow=vertical;curved=1;" parent="1" source="1ea317790d2ca983-10" target="1ea317790d2ca983-6" edge="1">
          <mxGeometry x="-0.4419" y="5" relative="1" as="geometry">
            <mxPoint x="287" y="433" as="targetPoint" />
            <mxPoint as="offset" />
          </mxGeometry>
        </mxCell>
        <mxCell id="1ea317790d2ca983-10" value="Symptom" style="ellipse;whiteSpace=wrap;html=1;rounded=0;shadow=1;comic=0;labelBackgroundColor=default;strokeWidth=2;fontFamily=Verdana;fontSize=12;align=center;" parent="1" vertex="1">
          <mxGeometry x="253" y="375" width="75" height="50" as="geometry" />
        </mxCell>
        <mxCell id="SZPIR-vylu-NpdnEEfQ1-3" value="is_a" style="edgeStyle=orthogonalEdgeStyle;rounded=0;html=1;labelBackgroundColor=default;startArrow=openThin;startFill=0;startSize=5;endArrow=none;endFill=0;endSize=5;jettySize=auto;orthogonalLoop=1;strokeColor=#B3B3B3;strokeWidth=1;fontFamily=Verdana;fontSize=12;elbow=vertical;curved=1;" parent="1" source="UWF2Yd7zg4pSp4IhXSV9-6" target="SZPIR-vylu-NpdnEEfQ1-4" edge="1">
          <mxGeometry x="0.3617" relative="1" as="geometry">
            <mxPoint x="117" y="398" as="sourcePoint" />
            <mxPoint as="offset" />
          </mxGeometry>
        </mxCell>
        <mxCell id="SZPIR-vylu-NpdnEEfQ1-4" value="Infestation" style="ellipse;whiteSpace=wrap;html=1;rounded=0;shadow=1;comic=0;labelBackgroundColor=default;strokeWidth=1;fontFamily=Verdana;fontSize=12;align=center;" parent="1" vertex="1">
          <mxGeometry x="45.5" y="633" width="75" height="50" as="geometry" />
        </mxCell>
        <mxCell id="SZPIR-vylu-NpdnEEfQ1-7" value="is_a" style="edgeStyle=orthogonalEdgeStyle;rounded=0;html=1;labelBackgroundColor=default;startArrow=none;startFill=0;startSize=5;endArrow=classicThin;endFill=1;endSize=5;jettySize=auto;orthogonalLoop=1;strokeColor=#B3B3B3;strokeWidth=1;fontFamily=Verdana;fontSize=12;verticalAlign=middle;horizontal=1;elbow=vertical;curved=1;exitX=0.5;exitY=0;exitDx=0;exitDy=0;" parent="1" source="SZPIR-vylu-NpdnEEfQ1-8" target="SZPIR-vylu-NpdnEEfQ1-40" edge="1">
          <mxGeometry x="-0.1212" relative="1" as="geometry">
            <mxPoint x="497.75" y="654" as="targetPoint" />
            <mxPoint as="offset" />
          </mxGeometry>
        </mxCell>
        <mxCell id="SZPIR-vylu-NpdnEEfQ1-8" value="&lt;span&gt;Nutrient Deficiency&lt;/span&gt;" style="ellipse;whiteSpace=wrap;html=1;rounded=0;shadow=1;comic=0;labelBackgroundColor=default;strokeWidth=1;fontFamily=Verdana;fontSize=12;align=center;" parent="1" vertex="1">
          <mxGeometry x="281" y="633" width="126.5" height="50" as="geometry" />
        </mxCell>
        <mxCell id="SZPIR-vylu-NpdnEEfQ1-9" value="is_a" style="edgeStyle=orthogonalEdgeStyle;rounded=0;html=1;labelBackgroundColor=default;startArrow=classicThin;startFill=1;startSize=5;endArrow=none;endFill=0;endSize=5;jettySize=auto;orthogonalLoop=1;strokeColor=#B3B3B3;strokeWidth=1;fontFamily=Verdana;fontSize=12;curved=1;entryX=0;entryY=0.5;entryDx=0;entryDy=0;" parent="1" source="SZPIR-vylu-NpdnEEfQ1-12" target="SZPIR-vylu-NpdnEEfQ1-10" edge="1">
          <mxGeometry x="0.4555" y="6" relative="1" as="geometry">
            <mxPoint x="795" y="501" as="sourcePoint" />
            <mxPoint as="offset" />
          </mxGeometry>
        </mxCell>
        <mxCell id="SZPIR-vylu-NpdnEEfQ1-10" value="&lt;span&gt;Actuator&lt;/span&gt;" style="ellipse;whiteSpace=wrap;html=1;rounded=0;shadow=1;comic=0;labelBackgroundColor=default;strokeWidth=1;fontFamily=Verdana;fontSize=12;align=center;" parent="1" vertex="1">
          <mxGeometry x="601" y="559" width="75" height="50" as="geometry" />
        </mxCell>
        <mxCell id="SZPIR-vylu-NpdnEEfQ1-11" value="is_a" style="edgeStyle=orthogonalEdgeStyle;rounded=0;html=1;labelBackgroundColor=default;startArrow=none;startFill=0;startSize=5;endArrow=classicThin;endFill=1;endSize=5;jettySize=auto;orthogonalLoop=1;strokeColor=#B3B3B3;strokeWidth=1;fontFamily=Verdana;fontSize=12;curved=1;entryX=1;entryY=0.5;entryDx=0;entryDy=0;" parent="1" source="SZPIR-vylu-NpdnEEfQ1-14" target="SZPIR-vylu-NpdnEEfQ1-12" edge="1">
          <mxGeometry x="-0.5618" y="8" relative="1" as="geometry">
            <mxPoint x="-65" y="701" as="sourcePoint" />
            <mxPoint as="offset" />
          </mxGeometry>
        </mxCell>
        <mxCell id="SZPIR-vylu-NpdnEEfQ1-12" value="&lt;span&gt;Device&lt;/span&gt;" style="ellipse;whiteSpace=wrap;html=1;rounded=0;shadow=1;comic=0;labelBackgroundColor=default;strokeWidth=2;fontFamily=Verdana;fontSize=12;align=center;" parent="1" vertex="1">
          <mxGeometry x="401" y="476" width="75" height="50" as="geometry" />
        </mxCell>
        <mxCell id="SZPIR-vylu-NpdnEEfQ1-14" value="&lt;span&gt;Sensor&lt;/span&gt;" style="ellipse;whiteSpace=wrap;html=1;rounded=0;shadow=1;comic=0;labelBackgroundColor=default;strokeWidth=2;fontFamily=Verdana;fontSize=12;align=center;" parent="1" vertex="1">
          <mxGeometry x="547" y="389" width="75" height="50" as="geometry" />
        </mxCell>
        <mxCell id="SZPIR-vylu-NpdnEEfQ1-16" value="&lt;span&gt;Humidity&lt;/span&gt;" style="ellipse;whiteSpace=wrap;html=1;rounded=0;shadow=1;comic=0;labelBackgroundColor=default;strokeWidth=1;fontFamily=Verdana;fontSize=12;align=center;" parent="1" vertex="1">
          <mxGeometry x="825.5" y="549" width="75" height="50" as="geometry" />
        </mxCell>
        <mxCell id="SZPIR-vylu-NpdnEEfQ1-18" value="&lt;span&gt;Temperature&lt;/span&gt;" style="ellipse;whiteSpace=wrap;html=1;rounded=0;shadow=1;comic=0;labelBackgroundColor=default;strokeWidth=1;fontFamily=Verdana;fontSize=12;align=center;" parent="1" vertex="1">
          <mxGeometry x="742.25" y="599" width="91.5" height="50" as="geometry" />
        </mxCell>
        <mxCell id="SZPIR-vylu-NpdnEEfQ1-20" value="&lt;span&gt;Thermostat&lt;/span&gt;" style="ellipse;whiteSpace=wrap;html=1;rounded=0;shadow=1;comic=0;labelBackgroundColor=default;strokeWidth=1;fontFamily=Verdana;fontSize=12;align=center;" parent="1" vertex="1">
          <mxGeometry x="597.5" y="751" width="82" height="50" as="geometry" />
        </mxCell>
        <mxCell id="SZPIR-vylu-NpdnEEfQ1-23" value="" style="edgeStyle=orthogonalEdgeStyle;rounded=0;html=1;labelBackgroundColor=default;startArrow=none;startFill=0;startSize=5;endArrow=classicThin;endFill=1;endSize=5;jettySize=auto;orthogonalLoop=1;strokeColor=#B3B3B3;strokeWidth=1;fontFamily=Verdana;fontSize=12;curved=1;entryX=0.5;entryY=1;entryDx=0;entryDy=0;exitX=0.5;exitY=0;exitDx=0;exitDy=0;" parent="1" source="SZPIR-vylu-NpdnEEfQ1-20" target="SZPIR-vylu-NpdnEEfQ1-10" edge="1">
          <mxGeometry x="-0.6385" y="6" relative="1" as="geometry">
            <mxPoint x="732.5" y="589" as="sourcePoint" />
            <mxPoint x="942.5" y="579" as="targetPoint" />
            <mxPoint as="offset" />
          </mxGeometry>
        </mxCell>
        <mxCell id="SZPIR-vylu-NpdnEEfQ1-21" value="&lt;span&gt;Sprinkler&lt;/span&gt;" style="ellipse;whiteSpace=wrap;html=1;rounded=0;shadow=1;comic=0;labelBackgroundColor=default;strokeWidth=1;fontFamily=Verdana;fontSize=12;align=center;" parent="1" vertex="1">
          <mxGeometry x="487" y="705" width="75" height="50" as="geometry" />
        </mxCell>
        <mxCell id="SZPIR-vylu-NpdnEEfQ1-39" value="Biotic" style="ellipse;whiteSpace=wrap;html=1;rounded=0;shadow=1;comic=0;labelBackgroundColor=default;strokeWidth=1;fontFamily=Verdana;fontSize=12;align=center;" parent="1" vertex="1">
          <mxGeometry x="160.75" y="536" width="106" height="50" as="geometry" />
        </mxCell>
        <mxCell id="SZPIR-vylu-NpdnEEfQ1-40" value="Abiotic" style="ellipse;whiteSpace=wrap;html=1;rounded=0;shadow=1;comic=0;labelBackgroundColor=default;strokeWidth=1;fontFamily=Verdana;fontSize=12;align=center;" parent="1" vertex="1">
          <mxGeometry x="291.25" y="536" width="106" height="50" as="geometry" />
        </mxCell>
        <mxCell id="SZPIR-vylu-NpdnEEfQ1-41" value="" style="edgeStyle=orthogonalEdgeStyle;rounded=0;html=1;labelBackgroundColor=default;startArrow=openThin;startFill=0;startSize=5;endArrow=none;endFill=0;endSize=5;jettySize=auto;orthogonalLoop=1;strokeColor=#B3B3B3;strokeWidth=1;fontFamily=Verdana;fontSize=12;exitX=0.5;exitY=1;exitDx=0;exitDy=0;elbow=vertical;curved=1;" parent="1" source="1ea317790d2ca983-6" target="SZPIR-vylu-NpdnEEfQ1-39" edge="1">
          <mxGeometry x="0.4915" relative="1" as="geometry">
            <mxPoint x="438.75" y="660" as="sourcePoint" />
            <mxPoint x="344.75" y="663" as="targetPoint" />
            <mxPoint as="offset" />
          </mxGeometry>
        </mxCell>
        <mxCell id="9eAdQlgjlcyclNUyOF1E-8" value="captures" style="edgeStyle=orthogonalEdgeStyle;rounded=0;html=1;labelBackgroundColor=default;startArrow=classicThin;startFill=1;startSize=5;endArrow=none;endFill=0;endSize=5;jettySize=auto;orthogonalLoop=1;strokeColor=#B3B3B3;strokeWidth=1;fontFamily=Verdana;fontSize=12;curved=1;exitX=1;exitY=0.5;exitDx=0;exitDy=0;" parent="1" source="RCgHX4GRvF95K-_nUbPo-11" target="SZPIR-vylu-NpdnEEfQ1-14" edge="1">
          <mxGeometry x="0.4648" y="-12" relative="1" as="geometry">
            <mxPoint x="783" y="424" as="sourcePoint" />
            <mxPoint as="offset" />
            <mxPoint x="556.5" y="317" as="targetPoint" />
          </mxGeometry>
        </mxCell>
        <mxCell id="JdLL4RoYm7KqUTjWfcFx-2" value="manages" style="edgeStyle=orthogonalEdgeStyle;rounded=0;html=1;labelBackgroundColor=default;startArrow=classicThin;startFill=1;startSize=5;endArrow=none;endFill=0;endSize=5;jettySize=auto;orthogonalLoop=1;strokeColor=#B3B3B3;strokeWidth=1;fontFamily=Verdana;fontSize=12;curved=1;entryX=1;entryY=0.5;entryDx=0;entryDy=0;" parent="1" source="1ea317790d2ca983-3" target="SZPIR-vylu-NpdnEEfQ1-10" edge="1">
          <mxGeometry x="0.246" y="-5" relative="1" as="geometry">
            <mxPoint x="814.5" y="419" as="sourcePoint" />
            <mxPoint as="offset" />
            <mxPoint x="745" y="494" as="targetPoint" />
          </mxGeometry>
        </mxCell>
        <mxCell id="UWF2Yd7zg4pSp4IhXSV9-1" value="&lt;span&gt;Fan&lt;/span&gt;" style="ellipse;whiteSpace=wrap;html=1;rounded=0;shadow=1;comic=0;labelBackgroundColor=default;strokeWidth=1;fontFamily=Verdana;fontSize=12;align=center;" parent="1" vertex="1">
          <mxGeometry x="456" y="628" width="75" height="50" as="geometry" />
        </mxCell>
        <mxCell id="UWF2Yd7zg4pSp4IhXSV9-2" value="" style="edgeStyle=orthogonalEdgeStyle;rounded=0;html=1;labelBackgroundColor=default;startArrow=none;startFill=0;startSize=5;endArrow=classicThin;endFill=1;endSize=5;jettySize=auto;orthogonalLoop=1;strokeColor=#B3B3B3;strokeWidth=1;fontFamily=Verdana;fontSize=12;curved=1;exitX=1;exitY=0.5;exitDx=0;exitDy=0;" parent="1" source="UWF2Yd7zg4pSp4IhXSV9-1" target="SZPIR-vylu-NpdnEEfQ1-10" edge="1">
          <mxGeometry x="-0.6864" y="-5" relative="1" as="geometry">
            <mxPoint x="672.5" y="717" as="sourcePoint" />
            <mxPoint x="705.5" y="609" as="targetPoint" />
            <mxPoint as="offset" />
          </mxGeometry>
        </mxCell>
        <mxCell id="UWF2Yd7zg4pSp4IhXSV9-3" value="Species" style="ellipse;whiteSpace=wrap;html=1;rounded=0;shadow=1;comic=0;labelBackgroundColor=default;strokeWidth=2;fontFamily=Verdana;fontSize=12;align=center;" parent="1" vertex="1">
          <mxGeometry x="654.5" y="59" width="75" height="50" as="geometry" />
        </mxCell>
        <mxCell id="UWF2Yd7zg4pSp4IhXSV9-4" value="of" style="edgeStyle=orthogonalEdgeStyle;rounded=0;html=1;labelBackgroundColor=default;startArrow=classicThin;startFill=1;startSize=5;endArrow=none;endFill=0;endSize=5;jettySize=auto;orthogonalLoop=1;strokeColor=#B3B3B3;strokeWidth=1;fontFamily=Verdana;fontSize=12;curved=1;entryX=0.5;entryY=0;entryDx=0;entryDy=0;" parent="1" source="UWF2Yd7zg4pSp4IhXSV9-3" target="cV3PZhEm3AA5OYnnYDBn-3" edge="1">
          <mxGeometry x="0.2778" relative="1" as="geometry">
            <mxPoint x="926" y="263" as="targetPoint" />
            <mxPoint as="offset" />
            <mxPoint x="1028.5" y="402" as="sourcePoint" />
          </mxGeometry>
        </mxCell>
        <mxCell id="UWF2Yd7zg4pSp4IhXSV9-6" value="Pests" style="ellipse;whiteSpace=wrap;html=1;rounded=0;shadow=1;comic=0;labelBackgroundColor=default;strokeWidth=1;fontFamily=Verdana;fontSize=12;align=center;" parent="1" vertex="1">
          <mxGeometry x="30" y="536" width="106" height="50" as="geometry" />
        </mxCell>
        <mxCell id="UWF2Yd7zg4pSp4IhXSV9-7" value="instance_of" style="edgeStyle=orthogonalEdgeStyle;rounded=0;html=1;labelBackgroundColor=default;startArrow=openThin;startFill=0;startSize=5;endArrow=none;endFill=0;endSize=5;jettySize=auto;orthogonalLoop=1;strokeColor=#B3B3B3;strokeWidth=1;fontFamily=Verdana;fontSize=12;elbow=vertical;curved=1;exitX=0.5;exitY=1;exitDx=0;exitDy=0;" parent="1" source="1ea317790d2ca983-6" target="UWF2Yd7zg4pSp4IhXSV9-6" edge="1">
          <mxGeometry x="-0.459" y="4" relative="1" as="geometry">
            <mxPoint x="211" y="381" as="sourcePoint" />
            <mxPoint x="237" y="584" as="targetPoint" />
            <mxPoint as="offset" />
          </mxGeometry>
        </mxCell>
        <mxCell id="cV3PZhEm3AA5OYnnYDBn-3" value="&lt;span&gt;Plant&lt;/span&gt;" style="ellipse;whiteSpace=wrap;html=1;rounded=0;shadow=1;comic=0;labelBackgroundColor=default;strokeWidth=2;fontFamily=Verdana;fontSize=12;align=center;" parent="1" vertex="1">
          <mxGeometry x="642.75" y="262" width="101" height="50" as="geometry" />
        </mxCell>
        <mxCell id="FaIekiVfJinsLdWRMJVf-1" value="&lt;span&gt;Sick&lt;/span&gt;" style="ellipse;whiteSpace=wrap;html=1;rounded=0;shadow=1;comic=0;labelBackgroundColor=default;strokeWidth=1;fontFamily=Verdana;fontSize=12;align=center;" parent="1" vertex="1">
          <mxGeometry x="117" y="196" width="75" height="50" as="geometry" />
        </mxCell>
        <mxCell id="RCgHX4GRvF95K-_nUbPo-2" value="&lt;span&gt;Ideal temperature range&lt;/span&gt;" style="ellipse;whiteSpace=wrap;html=1;rounded=0;shadow=1;comic=0;labelBackgroundColor=none;strokeWidth=1;fontFamily=Verdana;fontSize=12;align=center;" vertex="1" parent="1">
          <mxGeometry x="809" y="-82" width="91.5" height="50" as="geometry" />
        </mxCell>
        <mxCell id="RCgHX4GRvF95K-_nUbPo-3" value="Growth stage" style="ellipse;whiteSpace=wrap;html=1;rounded=0;shadow=1;comic=0;labelBackgroundColor=default;strokeWidth=2;fontFamily=Verdana;fontSize=12;align=center;" vertex="1" parent="1">
          <mxGeometry x="720" y="115" width="87" height="50" as="geometry" />
        </mxCell>
        <mxCell id="RCgHX4GRvF95K-_nUbPo-5" value="" style="edgeStyle=orthogonalEdgeStyle;rounded=0;html=1;labelBackgroundColor=default;startArrow=classicThin;startFill=1;startSize=5;endArrow=none;endFill=0;endSize=5;jettySize=auto;orthogonalLoop=1;strokeColor=#B3B3B3;strokeWidth=1;fontFamily=Verdana;fontSize=12;curved=1;" edge="1" parent="1" source="RCgHX4GRvF95K-_nUbPo-2" target="UWF2Yd7zg4pSp4IhXSV9-3">
          <mxGeometry x="0.3065" y="2" relative="1" as="geometry">
            <mxPoint x="546.75" y="237" as="targetPoint" />
            <mxPoint as="offset" />
            <mxPoint x="822.75" y="467" as="sourcePoint" />
          </mxGeometry>
        </mxCell>
        <mxCell id="RCgHX4GRvF95K-_nUbPo-6" value="has" style="edgeStyle=orthogonalEdgeStyle;rounded=0;html=1;labelBackgroundColor=default;startArrow=classicThin;startFill=1;startSize=5;endArrow=none;endFill=0;endSize=5;jettySize=auto;orthogonalLoop=1;strokeColor=#B3B3B3;strokeWidth=1;fontFamily=Verdana;fontSize=12;curved=1;" edge="1" parent="1" source="RCgHX4GRvF95K-_nUbPo-4" target="RCgHX4GRvF95K-_nUbPo-3">
          <mxGeometry x="0.2919" y="8" relative="1" as="geometry">
            <mxPoint x="760.75" y="45" as="targetPoint" />
            <mxPoint as="offset" />
            <mxPoint x="899.75" y="67" as="sourcePoint" />
          </mxGeometry>
        </mxCell>
        <mxCell id="RCgHX4GRvF95K-_nUbPo-7" value="is_in" style="edgeStyle=orthogonalEdgeStyle;rounded=0;html=1;labelBackgroundColor=default;startArrow=classicThin;startFill=1;startSize=5;endArrow=none;endFill=0;endSize=5;jettySize=auto;orthogonalLoop=1;strokeColor=#B3B3B3;strokeWidth=1;fontFamily=Verdana;fontSize=12;curved=1;entryX=0.5;entryY=0;entryDx=0;entryDy=0;" edge="1" parent="1" source="RCgHX4GRvF95K-_nUbPo-3" target="cV3PZhEm3AA5OYnnYDBn-3">
          <mxGeometry x="-0.2554" relative="1" as="geometry">
            <mxPoint x="619" y="77" as="targetPoint" />
            <mxPoint as="offset" />
            <mxPoint x="789" y="47" as="sourcePoint" />
          </mxGeometry>
        </mxCell>
        <mxCell id="SZPIR-vylu-NpdnEEfQ1-22" value="is_a" style="edgeStyle=orthogonalEdgeStyle;rounded=0;html=1;labelBackgroundColor=default;startArrow=none;startFill=0;startSize=5;endArrow=classicThin;endFill=1;endSize=5;jettySize=auto;orthogonalLoop=1;strokeColor=#B3B3B3;strokeWidth=1;fontFamily=Verdana;fontSize=12;curved=1;entryX=0.5;entryY=1;entryDx=0;entryDy=0;" parent="1" source="SZPIR-vylu-NpdnEEfQ1-21" target="SZPIR-vylu-NpdnEEfQ1-10" edge="1">
          <mxGeometry x="0.6616" relative="1" as="geometry">
            <mxPoint x="633" y="707" as="sourcePoint" />
            <mxPoint x="757.5" y="289" as="targetPoint" />
            <mxPoint as="offset" />
          </mxGeometry>
        </mxCell>
        <mxCell id="RCgHX4GRvF95K-_nUbPo-9" value="&lt;span&gt;name&lt;/span&gt;" style="ellipse;whiteSpace=wrap;html=1;rounded=0;shadow=1;comic=0;labelBackgroundColor=none;strokeWidth=1;fontFamily=Verdana;fontSize=12;align=center;" vertex="1" parent="1">
          <mxGeometry x="809" y="-153" width="91.5" height="50" as="geometry" />
        </mxCell>
        <mxCell id="RCgHX4GRvF95K-_nUbPo-10" value="has" style="edgeStyle=orthogonalEdgeStyle;rounded=0;html=1;labelBackgroundColor=default;startArrow=classicThin;startFill=1;startSize=5;endArrow=none;endFill=0;endSize=5;jettySize=auto;orthogonalLoop=1;strokeColor=#B3B3B3;strokeWidth=1;fontFamily=Verdana;fontSize=12;curved=1;" edge="1" parent="1" source="RCgHX4GRvF95K-_nUbPo-9" target="UWF2Yd7zg4pSp4IhXSV9-3">
          <mxGeometry x="0.6487" relative="1" as="geometry">
            <mxPoint x="837.75" y="83" as="targetPoint" />
            <mxPoint as="offset" />
            <mxPoint x="918.75" y="83" as="sourcePoint" />
          </mxGeometry>
        </mxCell>
        <mxCell id="RCgHX4GRvF95K-_nUbPo-11" value="&lt;span&gt;Sign&lt;/span&gt;" style="ellipse;whiteSpace=wrap;html=1;rounded=0;shadow=1;comic=0;labelBackgroundColor=default;strokeWidth=1;fontFamily=Verdana;fontSize=12;align=center;" vertex="1" parent="1">
          <mxGeometry x="407.5" y="246" width="75" height="50" as="geometry" />
        </mxCell>
        <mxCell id="RCgHX4GRvF95K-_nUbPo-12" value="has" style="edgeStyle=orthogonalEdgeStyle;rounded=0;html=1;labelBackgroundColor=default;startArrow=classic;startFill=1;startSize=5;endArrow=none;endFill=0;endSize=5;jettySize=auto;orthogonalLoop=1;strokeColor=#B3B3B3;strokeWidth=1;fontFamily=Verdana;fontSize=12;elbow=vertical;curved=1;" edge="1" parent="1" source="RCgHX4GRvF95K-_nUbPo-11" target="1ea317790d2ca983-10">
          <mxGeometry x="-0.7043" y="2" relative="1" as="geometry">
            <mxPoint as="offset" />
            <mxPoint x="265" y="210" as="sourcePoint" />
            <mxPoint x="223" y="360" as="targetPoint" />
          </mxGeometry>
        </mxCell>
        <mxCell id="RCgHX4GRvF95K-_nUbPo-13" value="&lt;span&gt;Color&lt;/span&gt;" style="ellipse;whiteSpace=wrap;html=1;rounded=0;shadow=1;comic=0;labelBackgroundColor=default;strokeWidth=1;fontFamily=Verdana;fontSize=12;align=center;" vertex="1" parent="1">
          <mxGeometry x="406" y="319" width="75" height="50" as="geometry" />
        </mxCell>
        <mxCell id="RCgHX4GRvF95K-_nUbPo-14" value="has" style="edgeStyle=orthogonalEdgeStyle;rounded=0;html=1;labelBackgroundColor=default;startArrow=classic;startFill=1;startSize=5;endArrow=none;endFill=0;endSize=5;jettySize=auto;orthogonalLoop=1;strokeColor=#B3B3B3;strokeWidth=1;fontFamily=Verdana;fontSize=12;elbow=vertical;curved=1;exitX=0;exitY=0.5;exitDx=0;exitDy=0;entryX=0.5;entryY=0;entryDx=0;entryDy=0;" edge="1" parent="1" source="RCgHX4GRvF95K-_nUbPo-13" target="1ea317790d2ca983-10">
          <mxGeometry x="-0.5781" y="2" relative="1" as="geometry">
            <mxPoint as="offset" />
            <mxPoint x="520" y="270" as="sourcePoint" />
            <mxPoint x="445" y="307" as="targetPoint" />
          </mxGeometry>
        </mxCell>
        <mxCell id="SZPIR-vylu-NpdnEEfQ1-17" value="is_a" style="edgeStyle=orthogonalEdgeStyle;rounded=0;html=1;labelBackgroundColor=default;startArrow=classicThin;startFill=1;startSize=5;endArrow=none;endFill=0;endSize=5;jettySize=auto;orthogonalLoop=1;strokeColor=#B3B3B3;strokeWidth=1;fontFamily=Verdana;fontSize=12;curved=1;" parent="1" source="SZPIR-vylu-NpdnEEfQ1-18" target="1ea317790d2ca983-3" edge="1">
          <mxGeometry x="0.6296" y="-3" relative="1" as="geometry">
            <mxPoint x="761" y="593" as="sourcePoint" />
            <mxPoint as="offset" />
            <mxPoint x="870.75" y="626" as="targetPoint" />
          </mxGeometry>
        </mxCell>
        <mxCell id="RCgHX4GRvF95K-_nUbPo-16" value="reads" style="edgeStyle=orthogonalEdgeStyle;rounded=0;html=1;labelBackgroundColor=default;startArrow=none;startFill=0;startSize=5;endArrow=classicThin;endFill=1;endSize=5;jettySize=auto;orthogonalLoop=1;strokeColor=#B3B3B3;strokeWidth=1;fontFamily=Verdana;fontSize=12;curved=1;exitX=1;exitY=0.5;exitDx=0;exitDy=0;entryX=0;entryY=0.5;entryDx=0;entryDy=0;" edge="1" parent="1" source="SZPIR-vylu-NpdnEEfQ1-14" target="1ea317790d2ca983-3">
          <mxGeometry x="-0.5294" y="5" relative="1" as="geometry">
            <mxPoint x="900" y="312" as="sourcePoint" />
            <mxPoint x="814.5" y="419" as="targetPoint" />
            <mxPoint as="offset" />
          </mxGeometry>
        </mxCell>
      </root>
    </mxGraphModel>
  </diagram>
</mxfile>
